# xmcd
#
# Track frame offsets:
#	150
#	11985
#	22913
#	34529
#	45847
#	59802
#	73610
#	84005
#	97507
#	111625
#	124228
#	134082
#	147057
#	157540
#	169634
#	181877
#	198173
#	209211
#	221577
#	233038
#	245232
#	259404
#	270430
#	284305
#	293378
#	305139
#	316508
#
# Disc length: 4386
#
# Revision: 1
# Processed by: cddbd v1.5.1PL0 Copyright (c) Steve Scherf et al.
# Submitted via: EasyCDDAExtractor 4.6.0.1
# Normalized: r0:TDELIM( - )
#
DISCID=7e11201b
DTITLE=Various Artist - A Million Dollars Worth Of Doo-Wop  Vol 17
DYEAR=1900
DGENRE=Blues
TTITLE0=Five Letters - Hold My Baby
TTITLE1=Five Letters - Your First Love
TTITLE2=Ermines - I'm So Used To You Now
TTITLE3=Ermines - You Broke My Heart
TTITLE4=Larry Birdsong and group - Now That We're Together
TTITLE5=Five Scalders - If Only You Were Mine
TTITLE6=Five Scalders - There Will Come A Time
TTITLE7=Gems - The Darkest Night
TTITLE8=Gems - One Woman Man
TTITLE9=Evergreens - Very Truly Yours
TTITLE10=Evergreens - Guitar Player
TTITLE11=Revels - You Lied To Me
TTITLE12=Revels - Later Later Baby
TTITLE13=Five Bluenotes - My Gal Is Gone
TTITLE14=Five Bluenote - Ooh Baby
TTITLE15=New Yorkers Five - Gloria My Darling
TTITLE16=New Yorkers Five - Cha Cha Baby
TTITLE17=Imperials - A Life Of Ease
TTITLE18=Imperials - It Wont Be Very Long
TTITLE19=Four Bells - Please Tell It To Me
TTITLE20=Four Bells - Long Way To Go
TTITLE21=Sheiks - Sentimental Heart
TTITLE22=Sheiks - So Fine
TTITLE23=Four Jacks - The Great Pretender
TTITLE24=Supremes - Just For You And I
TTITLE25=Supremes - Don't Leave Me Here To Cry
TTITLE26=Ramblers - Search My Heart
EXTD=
EXTT0=
EXTT1=
EXTT2=
EXTT3=
EXTT4=
EXTT5=
EXTT6=
EXTT7=
EXTT8=
EXTT9=
EXTT10=
EXTT11=
EXTT12=
EXTT13=
EXTT14=
EXTT15=
EXTT16=
EXTT17=
EXTT18=
EXTT19=
EXTT20=
EXTT21=
EXTT22=
EXTT23=
EXTT24=
EXTT25=
EXTT26=
PLAYORDER=
